<?xml version="1.0" encoding="utf-8"?>
<!-- Generator: Adobe Illustrator 18.1.1, SVG Export Plug-In . SVG Version: 6.00 Build 0)  -->
<svg version="1.1" id="Layer_1" xmlns="http://www.w3.org/2000/svg" xmlns:xlink="http://www.w3.org/1999/xlink" x="0px" y="0px"
	 viewBox="182 291.9 228 251.2" enable-background="new 182 291.9 228 251.2" xml:space="preserve">
<path fill="#8E8E8E" d="M389.7,387.9c-14,0-13.3-14.3-13.3-14.3s0-17.2,0-38.2c0-21-20.2-21.2-20.2-21.2h-13.5v12.6h11.1
	c0,0,7.1-0.2,7.1,11.4c0,11.6,0,34.5,0,34.5s0.2,19,16.5,21.4c-16.3,2.4-16.5,21.4-16.5,21.4s0,22.9,0,34.5
	c0,11.6-7.1,11.4-7.1,11.4h-11.1V474h13.5c0,0,20.2-0.2,20.2-21.2s0-38.2,0-38.2s-0.7-14.3,13.3-14.3V387.9z"/>
<path fill="#8E8E8E" d="M202.2,400.3c14,0,13.3,14.3,13.3,14.3s0,17.2,0,38.2s20.2,21.2,20.2,21.2h13.5v-12.6H238
	c0,0-7.1,0.2-7.1-11.4s0-34.5,0-34.5s-0.2-19-16.5-21.4c16.3-2.4,16.5-21.4,16.5-21.4s0-22.9,0-34.5s7.1-11.4,7.1-11.4h11.1v-12.6
	h-13.5c0,0-20.2,0.2-20.2,21.2c0,21,0,38.2,0,38.2s0.7,14.3-13.3,14.3V400.3z"/>
<rect x="262.6" y="343.5" fill="#484849" width="67.1" height="7.6"/>
<rect x="262.6" y="361.3" fill="#484849" width="67.1" height="7.6"/>
<rect x="262.6" y="378.9" fill="#676868" width="67.1" height="7.6"/>
<rect x="262.6" y="398.8" fill="#8E8D8D" width="67.1" height="7.6"/>
<rect x="262.6" y="418.5" fill="#B0AEAF" width="67.1" height="7.6"/>
<rect x="262.6" y="437.2" fill="#A64599" width="67.1" height="7.6"/>
<rect x="251.8" y="461.5" fill="#8E8E8E" width="88.6" height="12.3"/>
<g id="Layer_2_copy" display="none">
	<rect x="146.5" y="145.1" display="inline" width="298.9" height="498.1"/>
	<g display="inline">
		<path fill="#8E8E8E" d="M435.3,439.7c-20.8,0-19.8-21.2-19.8-21.2s0-25.5,0-56.8s-30-31.5-30-31.5h-20V349h16.5
			c0,0,10.5-0.2,10.5,17s0,51.2,0,51.2s0.2,28.2,24.5,31.8c-24.2,3.5-24.5,31.8-24.5,31.8s0,34,0,51.2s-10.5,17-10.5,17h-16.5v18.8
			h20c0,0,30-0.2,30-31.5s0-56.8,0-56.8s-1-21.2,19.8-21.2V439.7z"/>
		<path fill="#8E8E8E" d="M156.6,458.2c20.8,0,19.8,21.2,19.8,21.2s0,25.5,0,56.8s30,31.5,30,31.5h20V549h-16.5
			c0,0-10.5,0.2-10.5-17s0-51.2,0-51.2s-0.2-28.2-24.5-31.8c24.2-3.5,24.5-31.8,24.5-31.8s0-34,0-51.2s10.5-17,10.5-17h16.5v-18.8
			h-20c0,0-30,0.2-30,31.5s0,56.8,0,56.8s1,21.2-19.8,21.2V458.2z"/>
		<rect x="246.3" y="373.7" fill="#484849" width="99.7" height="11.3"/>
		<rect x="246.3" y="400.1" fill="#484849" width="99.7" height="11.3"/>
		<rect x="246.3" y="426.4" fill="#676868" width="99.7" height="11.3"/>
		<rect x="246.3" y="455.9" fill="#8E8D8D" width="99.7" height="11.3"/>
		<rect x="246.3" y="485.2" fill="#B0AEAF" width="99.7" height="11.3"/>
		<rect x="246.3" y="513" fill="#A64599" width="99.7" height="11.3"/>
		<rect x="230.3" y="549" fill="#FFFFFF" width="131.7" height="18.3"/>
	</g>
</g>
<g id="Layer_2" display="none">
	<rect x="147.3" y="245.5" display="inline" width="297.3" height="297.3"/>
	<g display="inline">
		<path fill="#8E8E8E" d="M435.3,384.9c-20.8,0-19.8-21.2-19.8-21.2s0-25.5,0-56.8s-30-31.5-30-31.5h-20v18.8h16.5
			c0,0,10.5-0.2,10.5,17s0,51.2,0,51.2s0.2,28.2,24.5,31.8c-24.2,3.5-24.5,31.8-24.5,31.8s0,34,0,51.2s-10.5,17-10.5,17h-16.5v18.8
			h20c0,0,30-0.2,30-31.5s0-56.8,0-56.8s-1-21.2,19.8-21.2V384.9z"/>
		<path fill="#8E8E8E" d="M156.6,403.4c20.8,0,19.8,21.2,19.8,21.2s0,25.5,0,56.8s30,31.5,30,31.5h20v-18.8h-16.5
			c0,0-10.5,0.2-10.5-17s0-51.2,0-51.2s-0.2-28.2-24.5-31.8c24.2-3.5,24.5-31.8,24.5-31.8s0-34,0-51.2s10.5-17,10.5-17h16.5v-18.8
			h-20c0,0-30,0.2-30,31.5s0,56.8,0,56.8s1,21.2-19.8,21.2V403.4z"/>
		<rect x="246.3" y="318.9" fill="#484849" width="99.7" height="11.3"/>
		<rect x="246.3" y="345.3" fill="#484849" width="99.7" height="11.3"/>
		<rect x="246.3" y="371.5" fill="#676868" width="99.7" height="11.3"/>
		<rect x="246.3" y="401" fill="#8E8D8D" width="99.7" height="11.3"/>
		<rect x="246.3" y="430.3" fill="#B0AEAF" width="99.7" height="11.3"/>
		<rect x="246.3" y="458.2" fill="#A64599" width="99.7" height="11.3"/>
		<rect x="230.3" y="494.2" fill="#FFFFFF" width="131.7" height="18.3"/>
	</g>
</g>
<g>
	<path fill="#8E8E8E" d="M246.5,522.6h-5.6l-2.3-10.3c-0.5-2-1.7-3-3.4-3l-5.2,0v13.3h-5.2v-33.1c2.5-0.3,6-0.4,10.6-0.4
		c3.7,0,6.3,0.7,7.8,2.1c1.5,1.4,2.3,3.9,2.3,7.6c0,2.6-0.4,4.5-1.3,5.9c-0.8,1.4-2.2,2.2-4.2,2.5v0.2c0.8,0.2,1.6,0.7,2.4,1.5
		c0.7,0.8,1.2,1.9,1.5,3.4L246.5,522.6z M230,504.4h5.2c1.9,0,3.2-0.4,3.9-1.2c0.7-0.7,1-2.1,1-4.1s-0.3-3.4-1-4.1
		c-0.7-0.7-2-1.1-3.9-1.1H230V504.4z"/>
	<path fill="#8E8E8E" d="M251.3,503.6l-0.5-4.1c3.6-0.8,7.1-1.2,10.4-1.2c2.7,0,4.6,0.6,5.9,1.8c1.3,1.2,1.9,3.3,1.9,6.4v16h-4.1
		l-0.5-3.6c-2.2,2.8-4.8,4.1-7.9,4.1c-1.9,0-3.5-0.6-4.7-1.8c-1.2-1.2-1.8-2.9-1.8-5v-2.4c0-1.9,0.5-3.3,1.6-4.4s2.6-1.5,4.5-1.5
		h7.8v-1.4c0-1.3-0.3-2.2-0.8-2.7c-0.5-0.4-1.5-0.7-3-0.7C257.8,503.2,254.9,503.3,251.3,503.6z M255,514.6v0.9
		c0,1.9,0.9,2.9,2.7,2.9c2.1,0,4.1-0.9,6.1-2.8v-3.6h-6.6c-0.8,0-1.4,0.3-1.7,0.7C255.1,513.1,255,513.8,255,514.6z"/>
	<path fill="#8E8E8E" d="M290.8,517.9l0.5,3.8c-2.1,1-4.6,1.4-7.6,1.4c-3.7,0-6.3-0.9-7.8-2.8c-1.5-1.9-2.3-5.1-2.3-9.6
		s0.8-7.7,2.3-9.6c1.5-1.9,4.1-2.8,7.8-2.8c2.9,0,5.3,0.4,7.2,1.3l-0.6,3.6c-1.4-0.1-3.3-0.1-5.7-0.1c-2.1,0-3.6,0.5-4.4,1.6
		c-0.8,1.1-1.2,3-1.2,5.9c0,2.9,0.4,4.9,1.2,6c0.8,1.1,2.3,1.6,4.4,1.6C286.9,518.3,288.9,518.2,290.8,517.9z"/>
	<path fill="#8E8E8E" d="M302.7,511.3h-2.3c0.2,1.7,0.3,2.9,0.3,3.6v7.6h-5.2V489h5.2v14.3c0,1.5-0.1,2.9-0.3,4.1h2.2l5.7-8.4h5.8
		l-5.8,8.4c-0.5,0.8-1,1.5-1.7,2v0.1c0.6,0.4,1.1,1.2,1.7,2.3l6.5,10.8H309L302.7,511.3z"/>
	<path fill="#8E8E8E" d="M340.6,489.4v33.1h-5.3v-15.2h-11.5v15.2h-5.3v-33.1h5.3v13h11.5v-13H340.6z"/>
	<path fill="#8E8E8E" d="M347.1,522.6v-33.1c3.9-0.3,7.5-0.4,10.9-0.4c4.4,0,7.5,1.2,9.3,3.7c1.8,2.5,2.6,6.9,2.6,13.3
		s-0.9,10.8-2.6,13.3c-1.8,2.5-4.9,3.7-9.3,3.7C354.6,523,351,522.8,347.1,522.6z M352.4,494v23.8c2.2,0.1,4.1,0.1,5.6,0.1
		c2.4,0,4.1-0.9,5-2.6c0.9-1.7,1.4-4.8,1.4-9.4s-0.5-7.7-1.4-9.4c-0.9-1.7-2.6-2.6-5-2.6c-0.8,0-1.8,0-3,0
		C353.8,494,352.9,494,352.4,494z"/>
</g>
<g>
</g>
</svg>
